<?xml version="1.0" encoding="UTF-8"?>
<!DOCTYPE svg PUBLIC "-//W3C//DTD SVG 1.1//EN" "http://www.w3.org/Graphics/SVG/1.1/DTD/svg11.dtd">
<svg xmlns="http://www.w3.org/2000/svg" version="1.1" width="600px" height="600px" style="shape-rendering:geometricPrecision; text-rendering:geometricPrecision; image-rendering:optimizeQuality; fill-rule:evenodd; clip-rule:evenodd" xmlns:xlink="http://www.w3.org/1999/xlink">
<g><path style="opacity:0.997" fill="#639beb" d="M 209.5,25.5 C 211.527,25.3379 213.527,25.5045 215.5,26C 225.657,30.9114 235.657,36.0781 245.5,41.5C 246.584,42.6651 247.417,43.9984 248,45.5C 248.167,50.8333 248.333,56.1667 248.5,61.5C 248.624,67.6047 248.124,73.6047 247,79.5C 238.567,84.9683 229.734,89.8016 220.5,94C 219.189,100.777 219.189,107.61 220.5,114.5C 228.833,118.667 237.167,122.833 245.5,127C 246.701,127.903 247.535,129.069 248,130.5C 248.667,141.5 248.667,152.5 248,163.5C 247.215,165.286 246.049,166.786 244.5,168C 236.5,172 228.5,176 220.5,180C 219.19,186.444 219.19,192.944 220.5,199.5C 229.571,203.785 238.404,208.451 247,213.5C 248.602,225.095 248.935,236.762 248,248.5C 247.215,250.286 246.049,251.786 244.5,253C 234.092,259.121 223.259,264.288 212,268.5C 200.31,263.655 188.977,257.988 178,251.5C 176.872,245.103 176.372,238.603 176.5,232C 176.667,226.167 176.833,220.333 177,214.5C 185.265,208.614 194.099,203.614 203.5,199.5C 204.833,192.833 204.833,186.167 203.5,179.5C 195.167,175.333 186.833,171.167 178.5,167C 177.874,166.25 177.374,165.416 177,164.5C 176.333,152.833 176.333,141.167 177,129.5C 185.265,123.614 194.099,118.614 203.5,114.5C 204.811,107.61 204.811,100.777 203.5,94C 195.5,90 187.5,86 179.5,82C 178.299,81.0975 177.465,79.9308 177,78.5C 176.333,67.1667 176.333,55.8333 177,44.5C 177.465,43.0692 178.299,41.9025 179.5,41C 189.718,36.059 199.718,30.8923 209.5,25.5 Z"/></g>
<g><path style="opacity:0.997" fill="#639bea" d="M 266.5,39.5 C 315.834,39.3333 365.168,39.5 414.5,40C 420.653,44.2519 420.986,48.9186 415.5,54C 365.5,54.6667 315.5,54.6667 265.5,54C 260.068,48.7614 260.401,43.9281 266.5,39.5 Z"/></g>
<g><path style="opacity:0.996" fill="#98c0f7" d="M 210.5,41.5 C 218.135,43.8134 225.468,46.9801 232.5,51C 233.811,57.7765 233.811,64.6099 232.5,71.5C 225.728,74.9694 218.895,78.3027 212,81.5C 205.439,78.4694 198.939,75.3028 192.5,72C 191.355,65.2476 191.189,58.4143 192,51.5C 198.308,48.2653 204.475,44.932 210.5,41.5 Z"/></g>
<g><path style="opacity:0.997" fill="#659dee" d="M 209.5,54.5 C 220.1,55.2539 222.1,59.7539 215.5,68C 207.212,69.2913 204.045,65.7913 206,57.5C 207.145,56.3636 208.312,55.3636 209.5,54.5 Z"/></g>
<g><path style="opacity:0.997" fill="#6299e8" d="M 265.5,68.5 C 291.835,68.3334 318.169,68.5 344.5,69C 350.133,74.4871 349.466,79.1537 342.5,83C 317.5,83.6667 292.5,83.6667 267.5,83C 262.401,81.3054 260.568,77.8054 262,72.5C 263.032,70.9733 264.199,69.64 265.5,68.5 Z"/></g>
<g><path style="opacity:0.997" fill="#639beb" d="M 265.5,125.5 C 315.501,125.333 365.501,125.5 415.5,126C 420.986,131.081 420.653,135.748 414.5,140C 365.167,140.667 315.833,140.667 266.5,140C 260.292,135.58 259.958,130.747 265.5,125.5 Z"/></g>
<g><path style="opacity:0.996" fill="#98c0f7" d="M 211.5,126.5 C 218.473,129.987 225.473,133.487 232.5,137C 233.811,143.777 233.811,150.61 232.5,157.5C 225.833,160.833 219.167,164.167 212.5,167.5C 205.833,164.167 199.167,160.833 192.5,157.5C 191.167,150.5 191.167,143.5 192.5,136.5C 199.053,133.392 205.386,130.059 211.5,126.5 Z"/></g>
<g><path style="opacity:0.997" fill="#649ded" d="M 210.5,139.5 C 218.349,140.202 220.849,144.202 218,151.5C 211.665,156.084 207.498,154.584 205.5,147C 205.782,143.556 207.448,141.056 210.5,139.5 Z"/></g>
<g><path style="opacity:0.997" fill="#629ae9" d="M 266.5,153.5 C 291.836,153.333 317.169,153.5 342.5,154C 349.466,157.846 350.133,162.513 344.5,168C 318.167,168.667 291.833,168.667 265.5,168C 260.068,162.761 260.401,157.928 266.5,153.5 Z"/></g>
<g><path style="opacity:0.997" fill="#649cec" d="M 266.5,210.5 C 315.834,210.333 365.168,210.5 414.5,211C 420.729,215.171 421.062,219.837 415.5,225C 365.5,225.667 315.5,225.667 265.5,225C 260.003,219.683 260.336,214.85 266.5,210.5 Z"/></g>
<g><path style="opacity:0.996" fill="#98c0f7" d="M 210.5,212.5 C 218.379,214.854 225.879,218.187 233,222.5C 233.831,229.192 233.664,235.858 232.5,242.5C 225.797,245.851 219.13,249.185 212.5,252.5C 205.472,249.57 198.639,246.236 192,242.5C 191.333,235.833 191.333,229.167 192,222.5C 198.308,219.265 204.475,215.932 210.5,212.5 Z"/></g>
<g><path style="opacity:0.997" fill="#659ded" d="M 208.5,225.5 C 214.471,224.141 218.137,226.308 219.5,232C 217.664,239.168 213.497,241.002 207,237.5C 204.66,233.052 205.16,229.052 208.5,225.5 Z"/></g>
<g><path style="opacity:0.997" fill="#5d94df" d="M 316.5,254.5 C 305.167,254.5 293.833,254.5 282.5,254.5C 277.489,254.666 272.489,254.499 267.5,254C 261.311,251.234 259.978,246.9 263.5,241C 264.833,240.333 266.167,239.667 267.5,239C 292.5,238.333 317.5,238.333 342.5,239C 350.5,244 350.5,249 342.5,254C 333.84,254.5 325.173,254.666 316.5,254.5 Z"/></g>
<g><path style="opacity:0.993" fill="#669ff0" d="M 136.5,251.5 C 162.298,252.137 180.465,264.137 191,287.5C 199.857,317.591 191.024,340.757 164.5,357C 178.5,362.667 192.5,368.333 206.5,374C 225.42,383.666 234.754,399.166 234.5,420.5C 247.723,415.888 260.723,410.722 273.5,405C 250.438,391.371 240.938,371.204 245,344.5C 252.323,316.339 270.489,301.673 299.5,300.5C 328.511,301.673 346.677,316.339 354,344.5C 358.062,371.204 348.562,391.371 325.5,405C 338.277,410.722 351.277,415.888 364.5,420.5C 364.246,399.166 373.58,383.666 392.5,374C 406.58,368.529 420.58,362.862 434.5,357C 409.252,341.651 400.085,319.484 407,290.5C 416.133,266.049 433.8,253.049 460,251.5C 499.044,256.259 517.377,278.259 515,317.5C 511.236,335.256 501.403,348.423 485.5,357C 502.397,363.448 519.063,370.448 535.5,378C 545.863,385.211 552.363,395.044 555,407.5C 555.667,453.833 555.667,500.167 555,546.5C 553.5,550.667 550.667,553.5 546.5,555C 381.833,555.667 217.167,555.667 52.5,555C 48.3333,553.5 45.5,550.667 44,546.5C 43.0195,498.788 43.3529,451.121 45,403.5C 48.493,393.015 54.6597,384.515 63.5,378C 79.9365,370.448 96.6032,363.448 113.5,357C 90.5113,343.855 80.6779,324.022 84,297.5C 90.8253,269.834 108.325,254.501 136.5,251.5 Z"/></g>
<g><path style="opacity:0.004" fill="#20f6fe" d="M 282.5,254.5 C 293.833,254.5 305.167,254.5 316.5,254.5C 305.167,270.5 293.833,270.5 282.5,254.5 Z"/></g>
<g><path style="opacity:0.996" fill="#98c0f7" d="M 132.5,282.5 C 150.595,281.107 161.262,289.274 164.5,307C 163.453,319.456 157.12,327.79 145.5,332C 126.537,334.526 115.87,326.36 113.5,307.5C 114.303,294.869 120.636,286.535 132.5,282.5 Z"/></g>
<g><path style="opacity:0.996" fill="#98c0f7" d="M 453.5,282.5 C 472.178,280.816 482.845,289.15 485.5,307.5C 483.13,326.36 472.463,334.526 453.5,332C 441.88,327.79 435.547,319.456 434.5,307C 435.955,294.87 442.289,286.703 453.5,282.5 Z"/></g>
<g><path style="opacity:0.996" fill="#98c0f7" d="M 293.5,330.5 C 315.466,329.965 325.633,340.632 324,362.5C 315.987,380.171 303.154,385.004 285.5,377C 273.418,366.675 271.251,354.509 279,340.5C 282.977,335.774 287.811,332.441 293.5,330.5 Z"/></g>
<g><path style="opacity:0.996" fill="#98c0f7" d="M 137.5,378.5 C 157.056,386.746 176.723,394.913 196.5,403C 199.433,405.264 201.6,408.098 203,411.5C 204.482,449.439 204.982,487.439 204.5,525.5C 160.833,525.5 117.167,525.5 73.5,525.5C 73.3333,487.832 73.5,450.165 74,412.5C 75.6793,408.618 78.1793,405.452 81.5,403C 97.0535,396.39 112.72,390.057 128.5,384C 131.898,382.643 134.898,380.81 137.5,378.5 Z"/></g>
<g><path style="opacity:0.996" fill="#98c0f7" d="M 458.5,378.5 C 478.056,386.746 497.723,394.913 517.5,403C 520.821,405.452 523.321,408.618 525,412.5C 525.5,450.165 525.667,487.832 525.5,525.5C 481.833,525.5 438.167,525.5 394.5,525.5C 394.024,487.119 394.524,448.785 396,410.5C 397.793,407.705 399.96,405.205 402.5,403C 418.167,396.667 433.833,390.333 449.5,384C 452.898,382.643 455.898,380.81 458.5,378.5 Z"/></g>
<g><path style="opacity:0.996" fill="#98c0f7" d="M 298.5,426.5 C 316.158,434.668 334.158,442.168 352.5,449C 359.536,451.369 363.703,456.202 365,463.5C 365.5,484.164 365.667,504.831 365.5,525.5C 321.5,525.5 277.5,525.5 233.5,525.5C 233.333,504.831 233.5,484.164 234,463.5C 235.297,456.202 239.464,451.369 246.5,449C 260.833,443.333 275.167,437.667 289.5,432C 292.898,430.643 295.898,428.81 298.5,426.5 Z"/></g>
</svg>
