<?xml version="1.0" encoding="UTF-8"?>
<!DOCTYPE svg PUBLIC "-//W3C//DTD SVG 1.1//EN" "http://www.w3.org/Graphics/SVG/1.1/DTD/svg11.dtd">
<svg xmlns="http://www.w3.org/2000/svg" version="1.1" width="512px" height="512px" style="shape-rendering:geometricPrecision; text-rendering:geometricPrecision; image-rendering:optimizeQuality; fill-rule:evenodd; clip-rule:evenodd" xmlns:xlink="http://www.w3.org/1999/xlink">
<g><path style="opacity:1" fill="#4785d9" d="M 8.5,-0.5 C 12.5,-0.5 16.5,-0.5 20.5,-0.5C 59.806,12.8804 99.1394,26.3804 138.5,40C 105.667,72.8333 72.8333,105.667 40,138.5C 26.3804,99.1394 12.8804,59.806 -0.5,20.5C -0.5,16.5 -0.5,12.5 -0.5,8.5C 0.803551,7.01307 1.97022,5.3464 3,3.5C 5.01533,2.30342 6.84866,0.970083 8.5,-0.5 Z"/></g>
<g><path style="opacity:1" fill="#4885da" d="M 511.5,107.5 C 511.5,110.833 511.5,114.167 511.5,117.5C 500.31,131.363 487.976,144.363 474.5,156.5C 462.652,144.818 450.652,133.318 438.5,122C 426.865,118.481 419.865,122.648 417.5,134.5C 417.622,137.698 418.455,140.698 420,143.5C 431.348,154.681 442.514,166.014 453.5,177.5C 447.015,184.486 440.348,191.319 433.5,198C 432.5,198.667 431.5,198.667 430.5,198C 419.833,187.333 409.167,176.667 398.5,166C 386.077,159.877 378.077,163.544 374.5,177C 375.133,180.367 376.3,183.533 378,186.5C 389.167,197.667 400.333,208.833 411.5,220C 404.319,227.348 396.986,234.515 389.5,241.5C 353.68,206.18 318.014,170.68 282.5,135C 322.5,95 362.5,55 402.5,15C 408.5,11.6667 414.5,11.6667 420.5,15C 451.425,45.4233 481.758,76.2566 511.5,107.5 Z"/></g>
<g><path style="opacity:1" fill="#4886db" d="M 163.5,57.5 C 246.799,140.299 329.965,223.299 413,306.5C 413.667,307.167 413.667,307.833 413,308.5C 399,322.5 385,336.5 371,350.5C 286.916,266.917 203.416,182.917 120.5,98.5C 121.239,98.631 121.906,98.4643 122.5,98C 136.035,84.2981 149.701,70.7981 163.5,57.5 Z"/></g>
<g><path style="opacity:0.961" fill="#335385" d="M 163.5,57.5 C 149.701,70.7981 136.035,84.2981 122.5,98C 121.906,98.4643 121.239,98.631 120.5,98.5C 133.965,84.5348 147.631,70.7015 161.5,57C 162.437,56.3083 163.103,56.475 163.5,57.5 Z"/></g>
<g><path style="opacity:1" fill="#4885d9" d="M 100.5,121.5 C 183.965,204.465 267.299,287.632 350.5,371C 336.5,385 322.5,399 308.5,413C 307.5,413.667 306.5,413.667 305.5,413C 222.667,330.167 139.833,247.333 57,164.5C 56.2599,163.251 56.4265,162.251 57.5,161.5C 71.8333,148.167 86.1667,134.833 100.5,121.5 Z"/></g>
<g><path style="opacity:0.984" fill="#35568a" d="M 100.5,121.5 C 86.1667,134.833 71.8333,148.167 57.5,161.5C 70.6314,147.868 83.9648,134.368 97.5,121C 98.7494,120.26 99.7494,120.427 100.5,121.5 Z"/></g>
<g><path style="opacity:1" fill="#4885da" d="M 117.5,511.5 C 114.167,511.5 110.833,511.5 107.5,511.5C 76.2566,481.758 45.4233,451.425 15,420.5C 11.6667,414.5 11.6667,408.5 15,402.5C 55,362.5 95,322.5 135,282.5C 170.68,318.014 206.18,353.68 241.5,389.5C 234.515,396.986 227.348,404.319 220,411.5C 208.833,400.333 197.667,389.167 186.5,378C 173.916,372.06 165.916,375.893 162.5,389.5C 163.175,392.691 164.342,395.691 166,398.5C 176.667,409.167 187.333,419.833 198,430.5C 198.667,431.5 198.667,432.5 198,433.5C 191.319,440.348 184.486,447.015 177.5,453.5C 166.014,442.514 154.681,431.348 143.5,420C 133.437,414.953 125.937,417.453 121,427.5C 120.262,431.261 120.595,434.928 122,438.5C 133.318,450.652 144.818,462.652 156.5,474.5C 144.363,487.976 131.363,500.31 117.5,511.5 Z"/></g>
<g><path style="opacity:1" fill="#4784d8" d="M 433.5,328.5 C 441.578,335.073 449.245,342.24 456.5,350C 421.167,385.333 385.833,420.667 350.5,456C 349.833,456.667 349.167,456.667 348.5,456C 342,449.5 335.5,443 329,436.5C 328.333,435.5 328.333,434.5 329,433.5C 364.035,398.632 398.868,363.632 433.5,328.5 Z"/></g>
<g><path style="opacity:1" fill="#4885da" d="M 511.5,414.5 C 511.5,420.833 511.5,427.167 511.5,433.5C 509.476,441.705 505.643,449.039 500,455.5C 485.167,470.333 470.333,485.167 455.5,500C 449.039,505.643 441.705,509.476 433.5,511.5C 427.167,511.5 420.833,511.5 414.5,511.5C 408.208,509.523 402.208,506.69 396.5,503C 387.833,494.333 379.167,485.667 370.5,477C 406,441.5 441.5,406 477,370.5C 485.667,379.167 494.333,387.833 503,396.5C 506.69,402.208 509.523,408.208 511.5,414.5 Z"/></g>
</svg>
