<?xml version="1.0" encoding="UTF-8"?>
<!DOCTYPE svg PUBLIC "-//W3C//DTD SVG 1.1//EN" "http://www.w3.org/Graphics/SVG/1.1/DTD/svg11.dtd">
<svg xmlns="http://www.w3.org/2000/svg" version="1.1" width="1000px" height="300px" style="shape-rendering:geometricPrecision; text-rendering:geometricPrecision; image-rendering:optimizeQuality; fill-rule:evenodd; clip-rule:evenodd" xmlns:xlink="http://www.w3.org/1999/xlink">
<g><path style="opacity:0.959" fill="#30a1fd" d="M 659.5,49.5 C 668.64,48.5357 676.973,50.5357 684.5,55.5C 685.792,57.6666 686.625,59.9999 687,62.5C 688.298,108.472 688.964,154.472 689,200.5C 689.5,201 690,201.5 690.5,202C 706.475,200.641 713.808,207.975 712.5,224C 712.073,228.841 711.573,233.674 711,238.5C 709.73,242.77 706.896,245.27 702.5,246C 689.003,247.648 675.67,246.648 662.5,243C 652.243,239.005 646.41,231.505 645,220.5C 644.519,216.469 643.853,212.469 643,208.5C 642.333,159.833 642.333,111.167 643,62.5C 643.562,59.1283 645.062,56.2949 647.5,54C 651.353,51.8793 655.353,50.3793 659.5,49.5 Z"/></g>
<g><path style="opacity:0.97" fill="#30a1fd" d="M 28.5,60.5 C 53.1689,60.3334 77.8356,60.5 102.5,61C 146.776,72.6328 165.276,101.133 158,146.5C 148.991,172.837 130.824,189.004 103.5,195C 89.504,195.5 75.504,195.667 61.5,195.5C 61.6666,208.171 61.4999,220.838 61,233.5C 60.2031,239.277 57.0364,243.11 51.5,245C 41.241,247.457 31.241,246.791 21.5,243C 19.1898,241.363 17.6898,239.196 17,236.5C 15.3837,184.186 15.0504,131.852 16,79.5C 15.2256,69.6735 19.3923,63.3401 28.5,60.5 Z M 61.5,106.5 C 73.8378,106.333 86.1712,106.5 98.5,107C 112.923,113.275 117.423,123.775 112,138.5C 108.9,143.8 104.4,147.3 98.5,149C 86.1712,149.5 73.8378,149.667 61.5,149.5C 61.5,135.167 61.5,120.833 61.5,106.5 Z"/></g>
<g><path style="opacity:0.968" fill="#30a1fd" d="M 786.5,109.5 C 809.774,106.753 828.941,114.086 844,131.5C 855.481,148.33 857.148,165.997 849,184.5C 845.493,189.67 840.66,192.837 834.5,194C 812.833,194.333 791.167,194.667 769.5,195C 770.617,198.028 772.284,200.695 774.5,203C 782.652,208.621 791.652,210.955 801.5,210C 811.166,208.442 820.666,206.275 830,203.5C 833.129,203.329 835.963,204.162 838.5,206C 854.65,225.75 850.65,239.416 826.5,247C 808.186,250.018 789.853,250.185 771.5,247.5C 743.248,239.405 726.748,220.738 722,191.5C 717.316,152.673 733.149,126.506 769.5,113C 775.229,111.432 780.896,110.265 786.5,109.5 Z M 788.5,150.5 C 794.728,149.683 800.395,151.016 805.5,154.5C 811.137,160.267 810.804,165.434 804.5,170C 792.838,170.5 781.171,170.667 769.5,170.5C 770.176,166.813 771.676,163.48 774,160.5C 778.325,156.268 783.158,152.935 788.5,150.5 Z"/></g>
<g><path style="opacity:0.963" fill="#30a1fd" d="M 911.5,110.5 C 932.62,107.733 952.62,111.066 971.5,120.5C 977.314,126.001 978.147,132.334 974,139.5C 971.243,146.425 966.41,151.092 959.5,153.5C 954.118,151.988 948.785,150.154 943.5,148C 934.803,144.879 926.136,144.879 917.5,148C 914.92,150.12 914.92,152.287 917.5,154.5C 919.167,155.667 920.833,156.833 922.5,158C 938.322,159.823 953.322,164.157 967.5,171C 977.883,179.44 982.883,190.44 982.5,204C 981.388,231.939 966.721,246.606 938.5,248C 917.176,251.225 897.176,247.558 878.5,237C 870.764,232.459 868.597,225.959 872,217.5C 874.24,214.025 876.24,210.358 878,206.5C 882.63,199.848 888.797,198.015 896.5,201C 902.853,204.035 909.186,207.035 915.5,210C 922.45,213.014 929.45,213.181 936.5,210.5C 941.731,208.02 941.731,205.52 936.5,203C 920.931,201.109 906.265,196.442 892.5,189C 885.044,183.535 879.878,176.369 877,167.5C 869.109,136.309 880.609,117.309 911.5,110.5 Z"/></g>
<g><path style="opacity:0.969" fill="#30a1fd" d="M 191.5,112.5 C 198.841,112.334 206.174,112.5 213.5,113C 219.667,114.5 223.5,118.333 225,124.5C 225.333,144.167 225.667,163.833 226,183.5C 231.811,200.272 242.978,204.938 259.5,197.5C 263.707,194.115 266.54,189.782 268,184.5C 268.333,165.5 268.667,146.5 269,127.5C 268.969,119.581 272.802,114.748 280.5,113C 287.833,112.333 295.167,112.333 302.5,113C 307.573,114.406 311.073,117.572 313,122.5C 313.667,160.5 313.667,198.5 313,236.5C 310.312,242.771 305.479,245.937 298.5,246C 291.776,246.774 285.11,246.441 278.5,245C 272.286,242.765 269.12,238.265 269,231.5C 257.701,244.821 243.534,249.321 226.5,245C 205.556,238.725 191.389,225.225 184,204.5C 181.831,196.989 180.498,189.322 180,181.5C 179.333,164.167 179.333,146.833 180,129.5C 179.924,120.934 183.757,115.268 191.5,112.5 Z"/></g>
<g><path style="opacity:0.969" fill="#30a1fd" d="M 351.5,112.5 C 384.502,112.333 417.502,112.5 450.5,113C 461.056,116.556 466.723,123.889 467.5,135C 466.839,139.824 465.339,144.324 463,148.5C 444.785,166.015 426.285,183.182 407.5,200C 422.5,200.333 437.5,200.667 452.5,201C 466.316,202.378 472.316,210.045 470.5,224C 470.281,228.531 469.781,233.031 469,237.5C 466.878,242.619 463.044,245.452 457.5,246C 421.833,246.667 386.167,246.667 350.5,246C 339.764,242.419 334.097,234.919 333.5,223.5C 334.304,218.921 335.804,214.587 338,210.5C 356.904,192.259 376.404,174.759 396.5,158C 382.167,157.667 367.833,157.333 353.5,157C 349.021,156.761 345.355,154.927 342.5,151.5C 339.137,142.024 338.637,132.358 341,122.5C 342.476,116.853 345.976,113.52 351.5,112.5 Z"/></g>
<g><path style="opacity:0.967" fill="#30a1fd" d="M 503.5,112.5 C 536.835,112.333 570.168,112.5 603.5,113C 618.394,119.957 622.894,131.123 617,146.5C 598.488,165.012 579.321,182.845 559.5,200C 574.833,200.333 590.167,200.667 605.5,201C 612.368,200.895 617.535,203.728 621,209.5C 624.333,219.169 624.333,228.836 621,238.5C 618.688,242.58 615.188,245.08 610.5,246C 574.833,246.667 539.167,246.667 503.5,246C 489.693,241.486 484.193,231.986 487,217.5C 487.806,214.554 489.139,211.888 491,209.5C 509.571,191.592 528.737,174.425 548.5,158C 532.461,157.904 516.461,157.237 500.5,156C 498.391,154.859 496.558,153.359 495,151.5C 491.045,140.564 491.045,129.564 495,118.5C 497.322,115.605 500.155,113.605 503.5,112.5 Z"/></g>
</svg>
