<?xml version="1.0" encoding="UTF-8"?>
<!DOCTYPE svg PUBLIC "-//W3C//DTD SVG 1.1//EN" "http://www.w3.org/Graphics/SVG/1.1/DTD/svg11.dtd">
<svg xmlns="http://www.w3.org/2000/svg" version="1.1" width="512px" height="512px" style="shape-rendering:geometricPrecision; text-rendering:geometricPrecision; image-rendering:optimizeQuality; fill-rule:evenodd; clip-rule:evenodd" xmlns:xlink="http://www.w3.org/1999/xlink">
<g><path style="opacity:0.983" fill="#4887dd" d="M 252.5,36.5 C 256.555,36.0731 259.889,37.4064 262.5,40.5C 341.768,178.276 421.268,315.942 501,453.5C 503.162,459.988 500.995,464.154 494.5,466C 427.695,466.321 361.028,466.487 294.5,466.5C 279.768,466.642 265.102,466.142 250.5,465C 248.438,462.932 247.272,460.432 247,457.5C 246.5,401.834 246.333,346.168 246.5,290.5C 245.178,290.33 244.011,290.663 243,291.5C 234.889,303.943 226.389,316.11 217.5,328C 208.193,330.696 204.027,327.196 205,317.5C 219.383,294.454 234.55,271.954 250.5,250C 255.973,247.362 260.473,248.528 264,253.5C 278.248,274.328 292.248,295.328 306,316.5C 307.808,327.03 303.641,330.863 293.5,328C 284.963,316.428 276.796,304.594 269,292.5C 267.89,290.963 266.39,290.297 264.5,290.5C 264.333,342.501 264.5,394.501 265,446.5C 265.5,447 266,447.5 266.5,448C 336.169,448.833 405.836,448.667 475.5,447.5C 475.709,446.914 476.043,446.414 476.5,446C 465.846,427.851 455.346,409.684 445,391.5C 443.829,390.107 442.329,389.273 440.5,389C 400.501,388.5 360.501,388.333 320.5,388.5C 320.5,382.833 320.5,377.167 320.5,371.5C 357.5,371.5 394.5,371.5 431.5,371.5C 431.201,367.895 430.035,364.561 428,361.5C 414.763,338.743 401.263,316.076 387.5,293.5C 365.546,292.511 343.546,292.178 321.5,292.5C 320.603,287.86 320.436,283.194 321,278.5C 321.388,277.572 322.055,276.905 323,276.5C 340.309,275.817 357.809,275.317 375.5,275C 375.957,274.586 376.291,274.086 376.5,273.5C 364.6,252.036 352.434,230.703 340,209.5C 338.739,206.789 336.906,204.622 334.5,203C 281.5,202.333 228.5,202.333 175.5,203C 174.584,203.374 173.75,203.874 173,204.5C 159.367,227.232 146.2,250.232 133.5,273.5C 133.709,274.086 134.043,274.586 134.5,275C 152.83,275.5 171.164,275.667 189.5,275.5C 190.725,280.848 190.725,286.181 189.5,291.5C 166.753,292.02 144.086,292.853 121.5,294C 108.099,317.313 94.5989,340.48 81,363.5C 79.2932,365.909 78.4598,368.575 78.5,371.5C 115.833,371.5 153.167,371.5 190.5,371.5C 190.785,376.897 190.451,382.23 189.5,387.5C 148.445,388.017 107.445,388.85 66.5,390C 55.2749,408.437 44.2749,427.104 33.5,446C 33.9574,446.414 34.2907,446.914 34.5,447.5C 95.4973,448.333 156.497,448.833 217.5,449C 223.73,453.86 224.063,459.194 218.5,465C 205.4,466.139 192.233,466.639 179,466.5C 124.945,466.255 70.4447,466.088 15.5,466C 9.00479,464.154 6.83813,459.988 9,453.5C 88.6673,315.983 168.167,178.316 247.5,40.5C 249.015,38.8322 250.682,37.4989 252.5,36.5 Z M 254.5,64.5 C 258.119,68.3629 261.286,72.6962 264,77.5C 284.307,112.617 304.474,147.784 324.5,183C 324.043,183.414 323.709,183.914 323.5,184.5C 277.599,185.83 231.766,185.83 186,184.5C 186.374,181.725 187.374,179.058 189,176.5C 210.611,138.93 232.445,101.597 254.5,64.5 Z"/></g>
</svg>
