<?xml version="1.0" encoding="UTF-8"?>
<!DOCTYPE svg PUBLIC "-//W3C//DTD SVG 1.1//EN" "http://www.w3.org/Graphics/SVG/1.1/DTD/svg11.dtd">
<svg xmlns="http://www.w3.org/2000/svg" version="1.1" width="512px" height="512px" style="shape-rendering:geometricPrecision; text-rendering:geometricPrecision; image-rendering:optimizeQuality; fill-rule:evenodd; clip-rule:evenodd" xmlns:xlink="http://www.w3.org/1999/xlink">
<g><path style="opacity:1" fill="#2fa0fc" d="M 440.5,127.5 C 437.167,127.5 433.833,127.5 430.5,127.5C 430.5,106.833 430.5,86.1667 430.5,65.5C 352.5,65.5 274.5,65.5 196.5,65.5C 196.5,86.1667 196.5,106.833 196.5,127.5C 193.167,127.5 189.833,127.5 186.5,127.5C 186.5,98.8333 186.5,70.1667 186.5,41.5C 186.334,33.16 186.5,24.8267 187,16.5C 187.5,16 188,15.5 188.5,15C 271.833,14.3333 355.167,14.3333 438.5,15C 439,15.5 439.5,16 440,16.5C 440.5,53.4985 440.667,90.4985 440.5,127.5 Z"/></g>
<g><path style="opacity:0.996" fill="#cac8fc" d="M 197.5,24.5 C 275.167,24.5 352.833,24.5 430.5,24.5C 430.5,34.5 430.5,44.5 430.5,54.5C 352.833,54.5 275.167,54.5 197.5,54.5C 197.5,44.5 197.5,34.5 197.5,24.5 Z"/></g>
<g><path style="opacity:1" fill="#383ed1" d="M 245.5,30.5 C 246.833,30.5 248.167,30.5 249.5,30.5C 249.666,35.8437 249.499,41.1771 249,46.5C 248.439,47.0219 247.772,47.3552 247,47.5C 244.975,47.1723 242.809,47.0056 240.5,47C 235.861,41.8564 236.694,38.0231 243,35.5C 243.772,35.6448 244.439,35.9781 245,36.5C 245.495,34.5273 245.662,32.5273 245.5,30.5 Z"/></g>
<g><path style="opacity:1" fill="#383dd0" d="M 265.5,30.5 C 266.5,30.5 267.5,30.5 268.5,30.5C 268.5,34.8333 268.5,39.1667 268.5,43.5C 269.5,43.5 270.5,43.5 271.5,43.5C 271.5,44.8333 271.5,46.1667 271.5,47.5C 269.533,47.7394 267.699,47.4061 266,46.5C 265.501,41.1771 265.334,35.8437 265.5,30.5 Z"/></g>
<g><path style="opacity:1" fill="#363bd0" d="M 204.5,31.5 C 208.295,32.444 211.129,34.7773 213,38.5C 214.871,34.7773 217.705,32.444 221.5,31.5C 221.5,36.8333 221.5,42.1667 221.5,47.5C 220.178,47.67 219.011,47.3366 218,46.5C 218.63,39.1807 216.963,38.1807 213,43.5C 211.333,42.5 210,41.1667 209,39.5C 208.667,41.8333 208.333,44.1667 208,46.5C 206.989,47.3366 205.822,47.67 204.5,47.5C 204.5,42.1667 204.5,36.8333 204.5,31.5 Z"/></g>
<g><path style="opacity:1" fill="#35a1fc" d="M 358.5,34.5 C 361.649,34.2114 364.649,34.7114 367.5,36C 369.984,38.2838 370.151,40.7838 368,43.5C 364.256,44.626 360.423,44.7927 356.5,44C 353.523,40.0526 354.189,36.8859 358.5,34.5 Z"/></g>
<g><path style="opacity:1" fill="#1c15fd" d="M 383.5,34.5 C 390.819,32.6808 394.319,35.3475 394,42.5C 393.5,43 393,43.5 392.5,44C 388.833,44.6667 385.167,44.6667 381.5,44C 378.743,40.1065 379.409,36.9398 383.5,34.5 Z"/></g>
<g><path style="opacity:1" fill="#fc3a15" d="M 408.5,34.5 C 411.978,34.1842 415.312,34.6842 418.5,36C 421.374,39.0509 421.041,41.7175 417.5,44C 414.167,44.6667 410.833,44.6667 407.5,44C 404.753,40.5527 405.087,37.386 408.5,34.5 Z"/></g>
<g><path style="opacity:1" fill="#373dd0" d="M 227.5,35.5 C 233.82,35.3196 236.32,38.3196 235,44.5C 233.18,47.2028 230.68,48.0361 227.5,47C 222.248,43.1732 222.248,39.3399 227.5,35.5 Z"/></g>
<g><path style="opacity:1" fill="#333ad0" d="M 251.5,35.5 C 252.822,35.33 253.989,35.6634 255,36.5C 255.497,38.8098 255.663,41.1432 255.5,43.5C 256.822,43.67 257.989,43.3366 259,42.5C 259.497,40.1902 259.663,37.8568 259.5,35.5C 260.5,35.5 261.5,35.5 262.5,35.5C 262.5,39.5 262.5,43.5 262.5,47.5C 260.278,46.6138 258.112,46.6138 256,47.5C 254.395,46.8993 253.062,45.8993 252,44.5C 251.502,41.5184 251.335,38.5184 251.5,35.5 Z"/></g>
<g><path style="opacity:1" fill="#3d40d1" d="M 275.5,35.5 C 281.334,34.3373 284,36.6706 283.5,42.5C 274.256,42.8732 274.256,43.8732 283.5,45.5C 280.854,47.7798 277.854,48.1132 274.5,46.5C 271.663,42.5256 271.997,38.8589 275.5,35.5 Z"/></g>
<g><path style="opacity:1" fill="#4041d2" d="M 287.5,35.5 C 290.157,35.162 292.49,35.8287 294.5,37.5C 294.192,38.3081 293.692,38.9747 293,39.5C 291.951,38.4829 290.784,38.3162 289.5,39C 294.232,40.0428 295.565,42.7095 293.5,47C 290.901,47.769 288.401,47.6023 286,46.5C 285.342,44.892 285.842,43.7253 287.5,43C 284.901,40.4213 284.901,37.9213 287.5,35.5 Z"/></g>
<g><path style="opacity:0.996" fill="#c4c2fa" d="M 228.5,39.5 C 229.5,39.5 230.5,39.5 231.5,39.5C 231.5,40.8333 231.5,42.1667 231.5,43.5C 228.046,43.7332 227.046,42.3999 228.5,39.5 Z"/></g>
<g><path style="opacity:0.996" fill="#bab9f7" d="M 242.5,39.5 C 243.995,39.4148 244.995,40.0815 245.5,41.5C 244.68,43.1112 243.346,43.7778 241.5,43.5C 241.433,42.0413 241.766,40.7079 242.5,39.5 Z"/></g>
<g><path style="opacity:0.991" fill="#366cfb" d="M 186.5,41.5 C 186.5,70.1667 186.5,98.8333 186.5,127.5C 131.167,127.5 75.8333,127.5 20.5,127.5C 20.3334,104.164 20.5,80.831 21,57.5C 23.6874,48.8142 29.5207,43.6475 38.5,42C 87.8322,41.5 137.166,41.3333 186.5,41.5 Z"/></g>
<g><path style="opacity:0.997" fill="#9fbdfd" d="M 197.5,24.5 C 197.5,34.5 197.5,44.5 197.5,54.5C 275.167,54.5 352.833,54.5 430.5,54.5C 352.668,55.4993 274.668,55.8326 196.5,55.5C 196.172,44.9865 196.506,34.6532 197.5,24.5 Z"/></g>
<g><path style="opacity:0.997" fill="#fbfbfb" d="M 430.5,127.5 C 383.167,127.5 335.833,127.5 288.5,127.5C 288.971,110.738 288.471,94.0718 287,77.5C 286.5,77 286,76.5 285.5,76C 260.167,75.3333 234.833,75.3333 209.5,76C 209,76.5 208.5,77 208,77.5C 207.5,94.1633 207.333,110.83 207.5,127.5C 203.833,127.5 200.167,127.5 196.5,127.5C 196.5,106.833 196.5,86.1667 196.5,65.5C 274.5,65.5 352.5,65.5 430.5,65.5C 430.5,86.1667 430.5,106.833 430.5,127.5 Z"/></g>
<g><path style="opacity:0.999" fill="#1a6fe5" d="M 288.5,127.5 C 285.167,127.5 281.833,127.5 278.5,127.5C 278.5,113.5 278.5,99.5 278.5,85.5C 258.167,85.5 237.833,85.5 217.5,85.5C 216.504,99.3234 216.171,113.323 216.5,127.5C 213.5,127.5 210.5,127.5 207.5,127.5C 207.333,110.83 207.5,94.1633 208,77.5C 208.5,77 209,76.5 209.5,76C 234.833,75.3333 260.167,75.3333 285.5,76C 286,76.5 286.5,77 287,77.5C 288.471,94.0718 288.971,110.738 288.5,127.5 Z"/></g>
<g><path style="opacity:0.999" fill="#fefefe" d="M 217.5,85.5 C 237.833,85.5 258.167,85.5 278.5,85.5C 278.5,99.5 278.5,113.5 278.5,127.5C 258.167,127.5 237.833,127.5 217.5,127.5C 217.5,113.5 217.5,99.5 217.5,85.5 Z"/></g>
<g><path style="opacity:1" fill="#000000" d="M 302.5,90.5 C 340.501,90.3333 378.501,90.5 416.5,91C 421.255,93.5095 421.588,96.5095 417.5,100C 378.5,100.667 339.5,100.667 300.5,100C 297.466,95.9741 298.133,92.8074 302.5,90.5 Z"/></g>
<g><path style="opacity:1" fill="#000000" d="M 300.5,111.5 C 339.501,111.333 378.501,111.5 417.5,112C 421.5,114.667 421.5,117.333 417.5,120C 378.5,120.667 339.5,120.667 300.5,120C 297.899,117.17 297.899,114.337 300.5,111.5 Z"/></g>
<g><path style="opacity:0.997" fill="#4193fe" d="M 217.5,85.5 C 217.5,99.5 217.5,113.5 217.5,127.5C 237.833,127.5 258.167,127.5 278.5,127.5C 281.833,127.5 285.167,127.5 288.5,127.5C 335.833,127.5 383.167,127.5 430.5,127.5C 433.833,127.5 437.167,127.5 440.5,127.5C 452.171,127.333 463.838,127.5 475.5,128C 483.389,130.258 488.222,135.425 490,143.5C 490.667,246.833 490.667,350.167 490,453.5C 487.313,462.186 481.479,467.353 472.5,469C 327.833,469.667 183.167,469.667 38.5,469C 29.5207,467.353 23.6874,462.186 21,453.5C 20.5,344.834 20.3333,236.167 20.5,127.5C 75.8333,127.5 131.167,127.5 186.5,127.5C 189.833,127.5 193.167,127.5 196.5,127.5C 200.167,127.5 203.833,127.5 207.5,127.5C 210.5,127.5 213.5,127.5 216.5,127.5C 216.171,113.323 216.504,99.3234 217.5,85.5 Z"/></g>
</svg>
