<?xml version="1.0" encoding="UTF-8"?>
<!DOCTYPE svg PUBLIC "-//W3C//DTD SVG 1.1//EN" "http://www.w3.org/Graphics/SVG/1.1/DTD/svg11.dtd">
<svg xmlns="http://www.w3.org/2000/svg" version="1.1" width="512px" height="512px" style="shape-rendering:geometricPrecision; text-rendering:geometricPrecision; image-rendering:optimizeQuality; fill-rule:evenodd; clip-rule:evenodd" xmlns:xlink="http://www.w3.org/1999/xlink">
<g><path style="opacity:1" fill="#2fa0fc" d="M 10.5,5.5 C 173.834,5.33333 337.167,5.5 500.5,6C 502.333,7.16667 503.833,8.66667 505,10.5C 505.667,173.833 505.667,337.167 505,500.5C 503.833,502.333 502.333,503.833 500.5,505C 337.167,505.667 173.833,505.667 10.5,505C 8.66667,503.833 7.16667,502.333 6,500.5C 5.33333,337.167 5.33333,173.833 6,10.5C 7.36569,8.63834 8.86569,6.97167 10.5,5.5 Z M 25.5,105.5 C 178.833,105.5 332.167,105.5 485.5,105.5C 485.5,232.167 485.5,358.833 485.5,485.5C 332.167,485.5 178.833,485.5 25.5,485.5C 25.5,358.833 25.5,232.167 25.5,105.5 Z M 65.5,145.5 C 105.5,145.5 145.5,145.5 185.5,145.5C 185.5,185.5 185.5,225.5 185.5,265.5C 145.5,265.5 105.5,265.5 65.5,265.5C 65.5,225.5 65.5,185.5 65.5,145.5 Z M 65.5,325.5 C 105.5,325.5 145.5,325.5 185.5,325.5C 185.5,365.5 185.5,405.5 185.5,445.5C 145.5,445.5 105.5,445.5 65.5,445.5C 65.5,405.5 65.5,365.5 65.5,325.5 Z"/></g>
<g><path style="opacity:0.996" fill="#cccafd" d="M 25.5,25.5 C 178.833,25.5 332.167,25.5 485.5,25.5C 485.5,45.5 485.5,65.5 485.5,85.5C 332.167,85.5 178.833,85.5 25.5,85.5C 25.5,65.5 25.5,45.5 25.5,25.5 Z"/></g>
<g><path style="opacity:1" fill="#3037cf" d="M 122.5,36.5 C 124.262,36.3573 125.929,36.6906 127.5,37.5C 128.666,48.1511 128.832,58.8177 128,69.5C 125.408,70.9817 123.075,70.6483 121,68.5C 110.527,71.7124 105.527,67.7124 106,56.5C 108.579,48.7079 113.579,46.3746 121,49.5C 121.228,45.0829 121.728,40.7496 122.5,36.5 Z"/></g>
<g><path style="opacity:1" fill="#2f37cf" d="M 161.5,36.5 C 163.467,36.2606 165.301,36.5939 167,37.5C 167.333,45.8333 167.667,54.1667 168,62.5C 169.011,63.3366 170.178,63.67 171.5,63.5C 171.5,65.8333 171.5,68.1667 171.5,70.5C 167.484,71.1001 163.984,70.1001 161,67.5C 160.192,57.0899 160.359,46.7565 161.5,36.5 Z"/></g>
<g><path style="opacity:1" fill="#3239cf" d="M 41.5,38.5 C 43.1992,38.3398 44.8659,38.5065 46.5,39C 50.3625,43.2286 53.8625,47.7286 57,52.5C 60.6896,48.3114 64.1896,43.978 67.5,39.5C 69.4325,38.4798 71.4325,38.3131 73.5,39C 74.652,49.0895 74.8186,59.2562 74,69.5C 71.8683,70.7797 69.7016,70.7797 67.5,69.5C 66.6701,63.8624 66.1701,58.1958 66,52.5C 63.9027,56.7309 60.9027,60.0643 57,62.5C 53.5554,59.6451 50.5554,56.3117 48,52.5C 47.6667,58.1667 47.3333,63.8333 47,69.5C 44.4082,70.9817 42.0749,70.6483 40,68.5C 39.3333,59.1667 39.3333,49.8333 40,40.5C 40.7172,39.9558 41.2172,39.2891 41.5,38.5 Z"/></g>
<g><path style="opacity:1" fill="#32a1fc" d="M 342.5,45.5 C 348.593,45.1392 354.593,45.6392 360.5,47C 365.472,50.5271 366.638,55.0271 364,60.5C 362.363,62.8102 360.196,64.3102 357.5,65C 351.719,65.9032 346.053,65.5699 340.5,64C 333.403,56.9873 334.07,50.8206 342.5,45.5 Z"/></g>
<g><path style="opacity:1" fill="#1912fe" d="M 392.5,45.5 C 398.621,45.0899 404.621,45.5899 410.5,47C 417.586,53.8239 416.919,59.8239 408.5,65C 402.388,65.9094 396.388,65.576 390.5,64C 383.468,57.0223 384.134,50.8556 392.5,45.5 Z"/></g>
<g><path style="opacity:1" fill="#fd370e" d="M 443.5,45.5 C 449.262,45.1493 454.928,45.6493 460.5,47C 467.656,54.3721 466.656,60.3721 457.5,65C 451.747,65.8508 446.08,65.5174 440.5,64C 433.422,56.4849 434.422,50.3182 443.5,45.5 Z"/></g>
<g><path style="opacity:1" fill="#3138cf" d="M 85.5,47.5 C 95.3357,45.4052 101.002,49.2385 102.5,59C 100.724,68.4007 95.0572,72.0674 85.5,70C 78.6574,65.8002 76.824,59.9669 80,52.5C 81.7297,50.5981 83.563,48.9314 85.5,47.5 Z"/></g>
<g><path style="opacity:1" fill="#3138cf" d="M 134.5,47.5 C 136.467,47.2606 138.301,47.5939 140,48.5C 140.333,52.5 140.667,56.5 141,60.5C 143.269,63.0544 145.602,63.0544 148,60.5C 148.333,56.5 148.667,52.5 149,48.5C 151,47.1667 153,47.1667 155,48.5C 155.812,55.7471 155.646,62.9138 154.5,70C 151.86,70.839 149.527,70.339 147.5,68.5C 142.876,71.2781 138.709,70.6114 135,66.5C 132.062,60.1047 131.895,53.7714 134.5,47.5 Z"/></g>
<g><path style="opacity:1" fill="#3239cf" d="M 180.5,47.5 C 184.182,47.3347 187.848,47.5014 191.5,48C 196.581,51.5136 197.581,55.8469 194.5,61C 190.459,61.1735 186.459,61.6735 182.5,62.5C 183.688,63.84 185.188,64.5066 187,64.5C 189.549,63.4812 192.049,63.4812 194.5,64.5C 195.953,66.6439 195.62,68.4773 193.5,70C 181.03,73.7034 174.53,69.2034 174,56.5C 174.873,52.4754 177.039,49.4754 180.5,47.5 Z"/></g>
<g><path style="opacity:1" fill="#3038cf" d="M 204.5,47.5 C 208.911,47.021 213.078,47.6876 217,49.5C 217.711,51.3668 217.211,52.8668 215.5,54C 212.839,53.4016 210.173,53.5683 207.5,54.5C 211.347,55.5011 214.847,57.1678 218,59.5C 218.893,62.9162 218.393,66.0828 216.5,69C 212.289,70.5339 207.956,70.8673 203.5,70C 198.532,67.8794 198.365,65.3794 203,62.5C 205.651,64.164 208.484,64.664 211.5,64C 208.481,62.8206 205.481,61.4872 202.5,60C 199.326,55.031 199.992,50.8644 204.5,47.5 Z"/></g>
<g><path style="opacity:0.996" fill="#cac8fd" d="M 88.5,54.5 C 93.4943,54.329 95.3276,56.6624 94,61.5C 91.6667,64.1667 89.3333,64.1667 87,61.5C 86.1668,58.829 86.6668,56.4957 88.5,54.5 Z"/></g>
<g><path style="opacity:0.996" fill="#c6c4fc" d="M 183.5,54.5 C 185.75,54.1814 187.75,54.6814 189.5,56C 187.045,57.5403 184.379,57.8736 181.5,57C 182.381,56.2917 183.047,55.4584 183.5,54.5 Z"/></g>
<g><path style="opacity:0.996" fill="#cbc9fd" d="M 114.5,55.5 C 120.158,54.6794 121.825,56.846 119.5,62C 113.741,63.1387 112.074,60.972 114.5,55.5 Z"/></g>
<g><path style="opacity:1" fill="#1a6fe6" d="M 50.5,125.5 C 100.501,125.333 150.501,125.5 200.5,126C 202.333,127.167 203.833,128.667 205,130.5C 205.667,180.5 205.667,230.5 205,280.5C 203.833,282.333 202.333,283.833 200.5,285C 150.5,285.667 100.5,285.667 50.5,285C 48.6667,283.833 47.1667,282.333 46,280.5C 45.3333,230.5 45.3333,180.5 46,130.5C 47.3657,128.638 48.8657,126.972 50.5,125.5 Z M 65.5,145.5 C 65.5,185.5 65.5,225.5 65.5,265.5C 105.5,265.5 145.5,265.5 185.5,265.5C 185.5,225.5 185.5,185.5 185.5,145.5C 145.5,145.5 105.5,145.5 65.5,145.5 Z"/></g>
<g><path style="opacity:1" fill="#010102" d="M 230.5,155.5 C 307.167,155.333 383.834,155.5 460.5,156C 465.275,159.655 466.775,164.488 465,170.5C 463.833,172.333 462.333,173.833 460.5,175C 383.833,175.667 307.167,175.667 230.5,175C 225.725,171.345 224.225,166.512 226,160.5C 227.366,158.638 228.866,156.972 230.5,155.5 Z"/></g>
<g><path style="opacity:1" fill="#010102" d="M 230.5,195.5 C 307.167,195.333 383.834,195.5 460.5,196C 465.275,199.655 466.775,204.488 465,210.5C 463.833,212.333 462.333,213.833 460.5,215C 383.833,215.667 307.167,215.667 230.5,215C 225.725,211.345 224.225,206.512 226,200.5C 227.366,198.638 228.866,196.972 230.5,195.5 Z"/></g>
<g><path style="opacity:1" fill="#010204" d="M 230.5,235.5 C 277.168,235.333 323.835,235.5 370.5,236C 375.275,239.655 376.775,244.488 375,250.5C 373.833,252.333 372.333,253.833 370.5,255C 323.833,255.667 277.167,255.667 230.5,255C 225.725,251.345 224.225,246.512 226,240.5C 227.366,238.638 228.866,236.972 230.5,235.5 Z"/></g>
<g><path style="opacity:1" fill="#1a6fe6" d="M 50.5,305.5 C 100.501,305.333 150.501,305.5 200.5,306C 202.333,307.167 203.833,308.667 205,310.5C 205.667,360.5 205.667,410.5 205,460.5C 203.833,462.333 202.333,463.833 200.5,465C 150.5,465.667 100.5,465.667 50.5,465C 48.6667,463.833 47.1667,462.333 46,460.5C 45.3333,410.5 45.3333,360.5 46,310.5C 47.3657,308.638 48.8657,306.972 50.5,305.5 Z M 65.5,325.5 C 65.5,365.5 65.5,405.5 65.5,445.5C 105.5,445.5 145.5,445.5 185.5,445.5C 185.5,405.5 185.5,365.5 185.5,325.5C 145.5,325.5 105.5,325.5 65.5,325.5 Z"/></g>
<g><path style="opacity:1" fill="#010102" d="M 230.5,335.5 C 307.167,335.333 383.834,335.5 460.5,336C 465.275,339.655 466.775,344.488 465,350.5C 463.833,352.333 462.333,353.833 460.5,355C 383.833,355.667 307.167,355.667 230.5,355C 225.725,351.345 224.225,346.512 226,340.5C 227.366,338.638 228.866,336.972 230.5,335.5 Z"/></g>
<g><path style="opacity:1" fill="#010102" d="M 230.5,375.5 C 307.167,375.333 383.834,375.5 460.5,376C 465.275,379.655 466.775,384.488 465,390.5C 463.833,392.333 462.333,393.833 460.5,395C 383.833,395.667 307.167,395.667 230.5,395C 225.725,391.345 224.225,386.512 226,380.5C 227.366,378.638 228.866,376.972 230.5,375.5 Z"/></g>
<g><path style="opacity:1" fill="#010204" d="M 230.5,415.5 C 277.168,415.333 323.835,415.5 370.5,416C 375.275,419.655 376.775,424.488 375,430.5C 373.833,432.333 372.333,433.833 370.5,435C 323.833,435.667 277.167,435.667 230.5,435C 225.725,431.345 224.225,426.512 226,420.5C 227.366,418.638 228.866,416.972 230.5,415.5 Z"/></g>
</svg>
