<?xml version="1.0" encoding="UTF-8"?>
<!DOCTYPE svg PUBLIC "-//W3C//DTD SVG 1.1//EN" "http://www.w3.org/Graphics/SVG/1.1/DTD/svg11.dtd">
<svg xmlns="http://www.w3.org/2000/svg" version="1.1" width="512px" height="512px" style="shape-rendering:geometricPrecision; text-rendering:geometricPrecision; image-rendering:optimizeQuality; fill-rule:evenodd; clip-rule:evenodd" xmlns:xlink="http://www.w3.org/1999/xlink">
<g><path style="opacity:0.992" fill="#fefefe" d="M 132.5,-0.5 C 214.5,-0.5 296.5,-0.5 378.5,-0.5C 391.887,3.72472 400.387,12.7247 404,26.5C 404.667,179.167 404.667,331.833 404,484.5C 400.387,498.275 391.887,507.275 378.5,511.5C 296.5,511.5 214.5,511.5 132.5,511.5C 119.113,507.275 110.613,498.275 107,484.5C 106.333,331.833 106.333,179.167 107,26.5C 110.613,12.7247 119.113,3.72472 132.5,-0.5 Z"/></g>
<g><path style="opacity:0.996" fill="#d6d6d6" d="M 216.5,24.5 C 242.502,24.3334 268.502,24.5 294.5,25C 297.462,28.4882 296.795,31.1549 292.5,33C 267.833,33.6667 243.167,33.6667 218.5,33C 214.121,30.9846 213.454,28.1513 216.5,24.5 Z"/></g>
<g><path style="opacity:0.996" fill="#659dfe" d="M 130.5,54.5 C 213.833,54.5 297.167,54.5 380.5,54.5C 380.5,185.5 380.5,316.5 380.5,447.5C 297.167,447.5 213.833,447.5 130.5,447.5C 130.5,316.5 130.5,185.5 130.5,54.5 Z"/></g>
<g><path style="opacity:1" fill="#f8fafe" d="M 283.5,237.5 C 285.792,237.244 287.959,237.577 290,238.5C 290.333,247.5 290.667,256.5 291,265.5C 295.437,266.855 296.604,269.689 294.5,274C 289.269,275.724 285.435,274.224 283,269.5C 282.192,258.757 282.358,248.09 283.5,237.5 Z"/></g>
<g><path style="opacity:1" fill="#fcfcfe" d="M 180.5,264.5 C 177.5,264.5 174.5,264.5 171.5,264.5C 171.5,266.833 171.5,269.167 171.5,271.5C 171.586,272.496 171.252,273.329 170.5,274C 168.231,274.758 166.064,274.591 164,273.5C 163.18,262.257 163.347,251.09 164.5,240C 170.167,239.333 175.833,239.333 181.5,240C 190.215,243.601 192.715,249.768 189,258.5C 186.819,261.528 183.986,263.528 180.5,264.5 Z"/></g>
<g><path style="opacity:0.996" fill="#73a5fe" d="M 171.5,247.5 C 174.187,247.336 176.854,247.503 179.5,248C 183.476,250.716 183.476,253.383 179.5,256C 176.854,256.497 174.187,256.664 171.5,256.5C 171.5,253.5 171.5,250.5 171.5,247.5 Z"/></g>
<g><path style="opacity:1" fill="#f8fafe" d="M 195.5,249.5 C 197.92,249.292 200.253,249.626 202.5,250.5C 203.328,255.132 203.828,259.798 204,264.5C 206.244,266.994 208.577,266.994 211,264.5C 211.333,259.833 211.667,255.167 212,250.5C 214.333,249.167 216.667,249.167 219,250.5C 219.814,258.413 219.647,266.246 218.5,274C 215.534,274.895 212.867,274.395 210.5,272.5C 202.492,275.912 197.326,273.245 195,264.5C 194.222,259.416 194.389,254.416 195.5,249.5 Z"/></g>
<g><path style="opacity:1" fill="#fcfcfe" d="M 226.5,249.5 C 233.755,249.187 240.921,249.52 248,250.5C 248.667,252.5 248.667,254.5 248,256.5C 244.201,259.297 240.701,262.464 237.5,266C 241.167,266.333 244.833,266.667 248.5,267C 249.833,269.333 249.833,271.667 248.5,274C 241.167,274.667 233.833,274.667 226.5,274C 224.604,272.192 224.104,270.025 225,267.5C 228.405,264.216 231.905,261.05 235.5,258C 232.5,257.667 229.5,257.333 226.5,257C 225.221,254.502 225.221,252.002 226.5,249.5 Z"/></g>
<g><path style="opacity:1" fill="#fcfcfe" d="M 255.5,249.5 C 262.755,249.187 269.921,249.52 277,250.5C 277.667,252.5 277.667,254.5 277,256.5C 273.201,259.297 269.701,262.464 266.5,266C 270.167,266.333 273.833,266.667 277.5,267C 278.833,269.333 278.833,271.667 277.5,274C 270.167,274.667 262.833,274.667 255.5,274C 253.604,272.192 253.104,270.025 254,267.5C 257.405,264.216 260.905,261.05 264.5,258C 261.5,257.667 258.5,257.333 255.5,257C 254.221,254.502 254.221,252.002 255.5,249.5 Z"/></g>
<g><path style="opacity:1" fill="#fafbfe" d="M 307.5,248.5 C 318.532,247.059 323.366,251.726 322,262.5C 321.5,263 321,263.5 320.5,264C 315.833,264.333 311.167,264.667 306.5,265C 307.167,265.667 307.833,266.333 308.5,267C 312.213,267.405 315.879,267.405 319.5,267C 322.371,269.84 322.037,272.174 318.5,274C 303.192,277.025 296.692,270.858 299,255.5C 301.441,252.546 304.275,250.213 307.5,248.5 Z"/></g>
<g><path style="opacity:1" fill="#f9fafe" d="M 333.5,248.5 C 338.081,247.923 342.248,248.923 346,251.5C 346.711,253.367 346.211,254.867 344.5,256C 341.158,255.456 337.825,255.623 334.5,256.5C 338.888,258.019 343.054,260.019 347,262.5C 348.601,271.234 344.935,275.234 336,274.5C 332.479,274.917 329.479,273.917 327,271.5C 327.244,265.504 329.744,264.338 334.5,268C 336.259,268.798 337.926,268.631 339.5,267.5C 335.079,266.362 331.246,264.029 328,260.5C 326.039,254.577 327.872,250.577 333.5,248.5 Z"/></g>
<g><path style="opacity:0.996" fill="#75a6fe" d="M 308.5,256.5 C 312.241,255.599 314.241,256.932 314.5,260.5C 311.753,260.813 309.086,260.48 306.5,259.5C 307.193,258.482 307.859,257.482 308.5,256.5 Z"/></g>
<g><path style="opacity:0.996" fill="#8fb7fe" d="M 180.5,264.5 C 178.052,265.473 175.385,265.806 172.5,265.5C 172.795,267.735 172.461,269.735 171.5,271.5C 171.5,269.167 171.5,266.833 171.5,264.5C 174.5,264.5 177.5,264.5 180.5,264.5 Z"/></g>
<g><path style="opacity:0.995" fill="#d5d5d5" d="M 251.5,459.5 C 267.351,459.183 274.184,466.849 272,482.5C 264.99,495.499 255.323,497.832 243,489.5C 236.632,480.228 237.132,471.394 244.5,463C 246.925,461.787 249.259,460.621 251.5,459.5 Z"/></g>
</svg>
