<?xml version="1.0" encoding="UTF-8"?>
<!DOCTYPE svg PUBLIC "-//W3C//DTD SVG 1.1//EN" "http://www.w3.org/Graphics/SVG/1.1/DTD/svg11.dtd">
<svg xmlns="http://www.w3.org/2000/svg" version="1.1" width="512px" height="512px" style="shape-rendering:geometricPrecision; text-rendering:geometricPrecision; image-rendering:optimizeQuality; fill-rule:evenodd; clip-rule:evenodd" xmlns:xlink="http://www.w3.org/1999/xlink">
<g><path style="opacity:0.987" fill="#30a1fd" d="M 186.5,-0.5 C 199.5,-0.5 212.5,-0.5 225.5,-0.5C 307.641,10.8178 365.141,54.4844 398,130.5C 423.247,202.604 413.747,269.604 369.5,331.5C 414.82,377.32 460.32,422.986 506,468.5C 508.13,471.767 509.963,475.1 511.5,478.5C 511.5,483.5 511.5,488.5 511.5,493.5C 507.833,501.833 501.833,507.833 493.5,511.5C 488.5,511.5 483.5,511.5 478.5,511.5C 474.6,509.877 470.933,507.711 467.5,505C 422.32,459.653 376.986,414.486 331.5,369.5C 269.588,413.749 202.588,423.249 130.5,398C 54.4831,365.14 10.8164,307.64 -0.5,225.5C -0.5,212.167 -0.5,198.833 -0.5,185.5C 9.82346,107.691 50.1568,51.5248 120.5,17C 141.789,8.01272 163.789,2.17939 186.5,-0.5 Z M 190.5,51.5 C 256.811,48.3987 306.978,75.0654 341,131.5C 365.667,180.833 365.667,230.167 341,279.5C 307.078,336.052 256.911,362.552 190.5,359C 137.234,352.132 97.0674,325.632 70,279.5C 45.3333,230.167 45.3333,180.833 70,131.5C 97.2811,85.4416 137.448,58.7749 190.5,51.5 Z"/></g>
</svg>
