<?xml version="1.0" encoding="UTF-8"?>
<!DOCTYPE svg PUBLIC "-//W3C//DTD SVG 1.1//EN" "http://www.w3.org/Graphics/SVG/1.1/DTD/svg11.dtd">
<svg xmlns="http://www.w3.org/2000/svg" version="1.1" width="512px" height="512px" style="shape-rendering:geometricPrecision; text-rendering:geometricPrecision; image-rendering:optimizeQuality; fill-rule:evenodd; clip-rule:evenodd" xmlns:xlink="http://www.w3.org/1999/xlink">
<g><path style="opacity:0.997" fill="#339efa" d="M 185.5,20.5 C 233.227,20.0145 280.893,20.5145 328.5,22C 335.679,25.1835 339.846,30.6835 341,38.5C 341.5,53.8297 341.667,69.163 341.5,84.5C 372.563,84.0227 403.563,84.5227 434.5,86C 447.542,93.1262 451.042,103.626 445,117.5C 442.778,121.388 439.612,124.221 435.5,126C 375.557,127.161 315.557,127.661 255.5,127.5C 195.443,127.661 135.443,127.161 75.5,126C 63.3041,118.402 60.1375,107.902 66,94.5C 68.5962,90.6099 72.0962,87.7766 76.5,86C 107.437,84.5227 138.437,84.0227 169.5,84.5C 169.196,68.4712 169.53,52.4712 170.5,36.5C 172.813,28.524 177.813,23.1907 185.5,20.5 Z M 213.5,63.5 C 241.5,63.5 269.5,63.5 297.5,63.5C 297.5,70.5 297.5,77.5 297.5,84.5C 269.5,84.5 241.5,84.5 213.5,84.5C 213.5,77.5 213.5,70.5 213.5,63.5 Z"/></g>
<g><path style="opacity:1" fill="#359ef9" d="M 100.5,148.5 C 113.253,146.951 122.087,151.951 127,163.5C 127.019,247.526 127.686,331.526 129,415.5C 134.457,434.321 146.957,444.821 166.5,447C 225.833,447.667 285.167,447.667 344.5,447C 367.333,444.167 380.167,431.333 383,408.5C 383.333,326.833 383.667,245.167 384,163.5C 389.788,150.527 399.621,146.027 413.5,150C 419.82,152.986 423.987,157.819 426,164.5C 426.667,248.833 426.667,333.167 426,417.5C 418.5,458.333 394.333,482.5 353.5,490C 288.167,490.667 222.833,490.667 157.5,490C 116.663,482.496 92.4961,458.329 85,417.5C 84.3333,333.167 84.3333,248.833 85,164.5C 87.685,156.65 92.8517,151.316 100.5,148.5 Z"/></g>
<g><path style="opacity:1" fill="#369ef9" d="M 205.5,191.5 C 219.794,188.722 229.294,194.055 234,207.5C 234.667,260.833 234.667,314.167 234,367.5C 229.585,380.797 220.419,385.964 206.5,383C 199,380.833 194.167,376 192,368.5C 191.333,314.167 191.333,259.833 192,205.5C 194.687,198.981 199.187,194.314 205.5,191.5 Z"/></g>
<g><path style="opacity:1" fill="#369ef9" d="M 291.5,191.5 C 304.356,189.177 313.523,193.844 319,205.5C 319.667,260.167 319.667,314.833 319,369.5C 312.583,382.425 302.417,386.591 288.5,382C 282.656,378.837 278.823,374.004 277,367.5C 276.333,314.167 276.333,260.833 277,207.5C 278.947,199.393 283.78,194.06 291.5,191.5 Z"/></g>
</svg>
